<?xml version="1.0" encoding="utf-8"?>
<!-- Generator: Adobe Illustrator 27.0.0, SVG Export Plug-In . SVG Version: 6.00 Build 0)  -->
<svg version="1.1" id="Layer_1" xmlns="http://www.w3.org/2000/svg" xmlns:xlink="http://www.w3.org/1999/xlink" x="0px" y="0px"
	 viewBox="0 0 373.1 500" style="enable-background:new 0 0 373.1 500;" xml:space="preserve">
<style type="text/css">
	.st0{fill:#FFFFFF;}
	.st1{enable-background:new    ;}
	.st2{fill:#F50909;}
	.st3{fill:#37474F;}
</style>
<path class="st0" d="M191,187.6l36.9,13.1l104.4-5.8l-9.7-12.4l-53.7-13.4h-31.4l-9.8,7.6l-10.8,0.1
	C217,176.9,200.8,167.5,191,187.6z"/>
<g class="st1">
	<path class="st2" d="M93.7,344.4l-1.1,5h-5.2l3.2-15.2h5.5c0.9,0,1.7,0,2.5,0.1c0.8,0.1,1.4,0.3,1.9,0.6c0.5,0.3,1,0.7,1.3,1.2
		s0.5,1.3,0.5,2.1c0,0.8-0.1,1.6-0.4,2.4s-0.7,1.4-1.3,1.9c-0.6,0.6-1.3,1-2.3,1.3c-0.9,0.3-2.1,0.5-3.4,0.5H93.7z M95.2,342.8
		c0.5,0,0.9-0.2,1.2-0.6s0.6-0.9,0.8-1.5c0.2-0.6,0.4-1.2,0.5-1.8c0.1-0.6,0.1-1.2,0.1-1.6c0-0.4-0.1-0.8-0.2-1.1s-0.5-0.4-0.9-0.4
		h-1.1l-1.5,7H95.2z"/>
	<path class="st2" d="M103.8,339.1h3.9l0.4,1.8h0.2c0.4-0.6,0.8-1.1,1.4-1.5c0.6-0.4,1.3-0.6,2.3-0.6c0.1,0,0.2,0,0.3,0
		c0.1,0,0.3,0,0.5,0.1s0.3,0.1,0.5,0.2s0.4,0.2,0.5,0.3l-1.1,4.9h-2.6c0-1-0.1-1.7-0.3-2.1c-0.1-0.4-0.4-0.6-0.7-0.6
		c-0.2,0-0.3,0-0.5,0.1c-0.2,0.1-0.4,0.2-0.6,0.5l-1.5,7.2h-4.9L103.8,339.1z"/>
	<path class="st2" d="M118.7,344.6c-0.1,0.4-0.1,0.7-0.1,1s0,0.6,0,0.9c0,0.1,0,0.3,0,0.5s0.1,0.3,0.1,0.5c0.1,0.2,0.1,0.3,0.2,0.4
		c0.1,0.1,0.3,0.2,0.4,0.2c0.1,0,0.3,0,0.5-0.1c0.2-0.1,0.4-0.2,0.6-0.4c0.2-0.2,0.4-0.4,0.5-0.6c0.2-0.3,0.3-0.5,0.4-0.9h3.9
		l-0.6,2.6c-0.3,0.2-0.7,0.4-1.1,0.5c-0.4,0.1-0.9,0.3-1.3,0.3c-0.5,0.1-0.9,0.2-1.4,0.2c-0.5,0-0.9,0.1-1.4,0.1
		c-0.8,0-1.5-0.1-2.2-0.2c-0.7-0.1-1.3-0.4-1.8-0.7c-0.5-0.4-0.9-0.8-1.2-1.4c-0.3-0.6-0.4-1.3-0.4-2.2c0-0.8,0.1-1.6,0.4-2.3
		c0.2-0.8,0.7-1.4,1.2-2c0.6-0.6,1.4-1.1,2.4-1.4c1-0.4,2.2-0.5,3.7-0.5c1.6,0,2.8,0.2,3.6,0.7c0.8,0.5,1.2,1.3,1.2,2.3
		c0,0.4-0.1,0.9-0.2,1.4s-0.3,0.9-0.6,1.3H118.7z M121.9,341.7c0-0.5-0.1-0.8-0.2-1c-0.2-0.2-0.4-0.3-0.6-0.3
		c-0.3,0-0.5,0.1-0.7,0.3c-0.2,0.2-0.4,0.4-0.6,0.7c-0.2,0.3-0.3,0.6-0.5,1c-0.1,0.4-0.3,0.7-0.4,1.1h2.7c0-0.2,0.1-0.4,0.1-0.6
		c0-0.2,0.1-0.4,0.1-0.6S121.9,341.9,121.9,341.7z"/>
	<path class="st2" d="M133,340.6c0.3-0.3,0.7-0.6,1.1-0.9c0.4-0.2,0.8-0.4,1.3-0.6c0.5-0.2,1.1-0.3,1.7-0.3c0.8,0,1.3,0.2,1.7,0.5
		c0.4,0.4,0.6,0.8,0.6,1.3h0.1c0.4-0.3,0.8-0.6,1.2-0.9c0.4-0.2,0.8-0.4,1.3-0.6c0.5-0.2,1-0.3,1.6-0.3c0.8,0,1.5,0.2,2,0.7
		c0.5,0.5,0.8,1,0.8,1.8c0,0.4-0.1,0.9-0.2,1.5c-0.1,0.6-0.3,1.3-0.4,2l-1,4.7h-4.7l1.3-6.3c0-0.2,0.1-0.5,0.1-0.7
		c0-0.2,0.1-0.4,0.1-0.6c0-0.2-0.1-0.4-0.2-0.6c-0.1-0.2-0.3-0.2-0.6-0.2c-0.3,0-0.6,0.1-0.9,0.3c-0.3,0.2-0.5,0.4-0.6,0.5l-1.6,7.4
		h-4.5l1.3-6.3c0-0.2,0.1-0.4,0.1-0.6c0-0.2,0.1-0.4,0.1-0.6c0-0.2-0.1-0.4-0.2-0.6s-0.3-0.2-0.5-0.2c-0.3,0-0.6,0.1-0.8,0.3
		s-0.5,0.4-0.6,0.5l-1.6,7.5h-4.9l2.2-10.3h3.9l0.4,1.5H133z"/>
	<path class="st2" d="M151.9,349.4H147l2.2-10.3h4.9L151.9,349.4z M154.7,335.9c0,0.4-0.1,0.7-0.2,1c-0.2,0.3-0.4,0.5-0.6,0.7
		c-0.2,0.2-0.5,0.3-0.9,0.4c-0.3,0.1-0.6,0.1-1,0.1c-0.6,0-1.2-0.2-1.6-0.5s-0.6-0.8-0.6-1.4c0-0.4,0.1-0.7,0.2-0.9s0.3-0.5,0.6-0.7
		c0.2-0.2,0.5-0.3,0.9-0.4c0.3-0.1,0.7-0.1,1-0.1c0.6,0,1.2,0.2,1.6,0.5C154.5,334.8,154.7,335.3,154.7,335.9z"/>
	<path class="st2" d="M163.2,339.1h4.9l-2.2,10.3H162l-0.4-1.5h-0.1c-0.4,0.5-1,0.9-1.7,1.2c-0.7,0.3-1.4,0.5-2.1,0.5
		c-1,0-1.7-0.2-2.3-0.7c-0.5-0.5-0.8-1.1-0.8-1.9c0-0.4,0.1-0.9,0.2-1.5c0.1-0.6,0.3-1.2,0.4-1.7l1-4.7h4.9l-1.2,5.6
		c0,0.1-0.1,0.3-0.1,0.5c0,0.2-0.1,0.3-0.1,0.5c0,0.2-0.1,0.3-0.1,0.5s0,0.3,0,0.4c0,0.2,0.1,0.4,0.2,0.6c0.1,0.2,0.3,0.3,0.6,0.3
		c0.3,0,0.6-0.1,0.8-0.3c0.3-0.2,0.5-0.4,0.6-0.6L163.2,339.1z"/>
	<path class="st2" d="M174.8,340.6c0.3-0.3,0.7-0.6,1.1-0.9c0.4-0.2,0.8-0.4,1.3-0.6c0.5-0.2,1.1-0.3,1.7-0.3c0.8,0,1.3,0.2,1.7,0.5
		c0.4,0.4,0.6,0.8,0.6,1.3h0.1c0.4-0.3,0.8-0.6,1.2-0.9c0.4-0.2,0.8-0.4,1.3-0.6c0.5-0.2,1-0.3,1.6-0.3c0.8,0,1.5,0.2,2,0.7
		c0.5,0.5,0.8,1,0.8,1.8c0,0.4-0.1,0.9-0.2,1.5c-0.1,0.6-0.3,1.3-0.4,2l-1,4.7H182l1.3-6.3c0-0.2,0.1-0.5,0.1-0.7
		c0-0.2,0.1-0.4,0.1-0.6c0-0.2-0.1-0.4-0.2-0.6c-0.1-0.2-0.3-0.2-0.6-0.2c-0.3,0-0.6,0.1-0.9,0.3c-0.3,0.2-0.5,0.4-0.6,0.5l-1.6,7.4
		h-4.5l1.3-6.3c0-0.2,0.1-0.4,0.1-0.6c0-0.2,0.1-0.4,0.1-0.6c0-0.2-0.1-0.4-0.2-0.6s-0.3-0.2-0.5-0.2c-0.3,0-0.6,0.1-0.8,0.3
		s-0.5,0.4-0.6,0.5l-1.6,7.5h-4.9l2.2-10.3h3.9l0.4,1.5H174.8z"/>
	<path class="st2" d="M193.6,349.4l3.2-15.2h6.5c1,0,1.9,0.1,2.6,0.3s1.4,0.5,1.8,1s0.9,1.1,1.1,1.8c0.2,0.8,0.4,1.7,0.4,2.8
		c0,1.2-0.1,2.3-0.4,3.4c-0.3,1.1-0.8,2.1-1.5,3c-0.7,0.9-1.6,1.6-2.7,2.1c-1.1,0.5-2.5,0.8-4.1,0.8H193.6z M200.2,347.7
		c0.5,0,1-0.2,1.4-0.7s0.8-1,1.1-1.7c0.3-0.7,0.5-1.4,0.7-2.3s0.4-1.6,0.5-2.4c0.1-0.8,0.2-1.5,0.3-2.1c0.1-0.6,0.1-1,0.1-1.3
		c0-0.5-0.1-0.9-0.3-1.2c-0.2-0.3-0.5-0.4-1-0.4h-1.2l-2.6,11.9H200.2z"/>
	<path class="st2" d="M214.7,344.6c-0.1,0.4-0.1,0.7-0.1,1c0,0.3,0,0.6,0,0.9c0,0.1,0,0.3,0,0.5c0,0.2,0.1,0.3,0.1,0.5
		c0.1,0.2,0.1,0.3,0.2,0.4c0.1,0.1,0.3,0.2,0.4,0.2c0.1,0,0.3,0,0.5-0.1c0.2-0.1,0.4-0.2,0.6-0.4c0.2-0.2,0.4-0.4,0.5-0.6
		c0.2-0.3,0.3-0.5,0.4-0.9h3.9l-0.6,2.6c-0.3,0.2-0.7,0.4-1.1,0.5c-0.4,0.1-0.9,0.3-1.3,0.3c-0.5,0.1-0.9,0.2-1.4,0.2
		c-0.5,0-0.9,0.1-1.4,0.1c-0.8,0-1.5-0.1-2.2-0.2c-0.7-0.1-1.3-0.4-1.8-0.7c-0.5-0.4-0.9-0.8-1.2-1.4c-0.3-0.6-0.4-1.3-0.4-2.2
		c0-0.8,0.1-1.6,0.4-2.3s0.7-1.4,1.2-2c0.6-0.6,1.4-1.1,2.4-1.4c1-0.4,2.2-0.5,3.7-0.5c1.6,0,2.8,0.2,3.6,0.7s1.2,1.3,1.2,2.3
		c0,0.4-0.1,0.9-0.2,1.4s-0.3,0.9-0.6,1.3H214.7z M217.9,341.7c0-0.5-0.1-0.8-0.2-1c-0.2-0.2-0.4-0.3-0.6-0.3
		c-0.3,0-0.5,0.1-0.7,0.3s-0.4,0.4-0.6,0.7c-0.2,0.3-0.3,0.6-0.5,1c-0.1,0.4-0.3,0.7-0.4,1.1h2.7c0-0.2,0.1-0.4,0.1-0.6
		c0-0.2,0.1-0.4,0.1-0.6C217.9,342.1,217.9,341.9,217.9,341.7z"/>
	<path class="st2" d="M223.6,339.1c0.6-0.1,1.1-0.3,1.6-0.4s0.9-0.4,1.2-0.6s0.7-0.5,1.1-0.9c0.3-0.4,0.7-0.8,1.1-1.3h2.5l-0.7,3.2
		h1.9l-0.3,1.6H230l-1,4.7c-0.1,0.4-0.1,0.7-0.2,1c0,0.3-0.1,0.5-0.1,0.7c0,0.3,0.1,0.5,0.3,0.6s0.7,0.1,1.3,0.1l-0.4,1.7
		c-0.1,0-0.3,0.1-0.5,0.1c-0.2,0-0.5,0-0.8,0.1c-0.3,0-0.6,0-0.9,0c-0.3,0-0.6,0-0.8,0c-0.4,0-0.8,0-1.2-0.1c-0.4-0.1-0.7-0.2-1-0.3
		c-0.3-0.2-0.5-0.4-0.7-0.7c-0.2-0.3-0.3-0.8-0.3-1.3c0-0.2,0-0.4,0-0.7c0-0.3,0.1-0.6,0.2-1l1-4.8h-1.9L223.6,339.1z"/>
	<path class="st2" d="M233.6,340c0.8-0.4,1.7-0.7,2.5-0.9c0.9-0.2,1.8-0.3,2.9-0.3c1,0,1.9,0.1,2.5,0.2c0.7,0.2,1.2,0.4,1.6,0.7
		c0.4,0.3,0.7,0.7,0.8,1.1s0.2,0.9,0.2,1.4c0,0.3,0,0.6-0.1,1c0,0.4-0.1,0.6-0.1,0.9l-1.1,5.3h-3.9l-0.4-1.5h-0.1
		c-0.5,0.6-1.1,1-1.8,1.3c-0.7,0.3-1.4,0.4-2,0.4c-0.4,0-0.8-0.1-1.1-0.2c-0.4-0.1-0.7-0.3-1-0.5c-0.3-0.2-0.5-0.5-0.7-0.9
		c-0.2-0.4-0.3-0.8-0.3-1.3c0-0.8,0.2-1.5,0.7-2s1.1-0.9,1.8-1.1s1.6-0.4,2.5-0.5c0.9-0.1,1.9-0.1,2.8-0.1c0-0.2,0.1-0.4,0.1-0.7
		s0.1-0.6,0.1-0.8c0-0.3-0.1-0.6-0.2-0.8s-0.5-0.4-0.9-0.4c-0.6,0-1,0.2-1.2,0.5c-0.3,0.3-0.4,0.7-0.5,1.2h-3.5L233.6,340z
		 M239.2,344.2h-0.4c-0.5,0-0.9,0.1-1.2,0.2s-0.6,0.3-0.8,0.5c-0.2,0.2-0.3,0.4-0.4,0.6c-0.1,0.2-0.1,0.5-0.1,0.7
		c0,0.4,0.1,0.7,0.3,0.9c0.2,0.2,0.4,0.3,0.7,0.3c0.3,0,0.7-0.1,1-0.4c0.3-0.2,0.5-0.6,0.6-1L239.2,344.2z"/>
	<path class="st2" d="M249.8,349.4h-4.9l2.2-10.3h4.9L249.8,349.4z M252.7,335.9c0,0.4-0.1,0.7-0.2,1c-0.2,0.3-0.4,0.5-0.6,0.7
		s-0.5,0.3-0.9,0.4c-0.3,0.1-0.6,0.1-1,0.1c-0.6,0-1.2-0.2-1.6-0.5c-0.4-0.3-0.6-0.8-0.6-1.4c0-0.4,0.1-0.7,0.2-0.9
		c0.1-0.3,0.3-0.5,0.6-0.7c0.2-0.2,0.5-0.3,0.9-0.4c0.3-0.1,0.7-0.1,1-0.1c0.6,0,1.2,0.2,1.6,0.5
		C252.4,334.8,252.7,335.3,252.7,335.9z"/>
	<path class="st2" d="M256.9,349.4H252l3.4-16.1h4.9L256.9,349.4z"/>
	<path class="st2" d="M264.5,344.6c-0.1,0.4-0.1,0.7-0.1,1c0,0.3,0,0.6,0,0.9c0,0.1,0,0.3,0,0.5c0,0.2,0.1,0.3,0.1,0.5
		c0.1,0.2,0.1,0.3,0.2,0.4c0.1,0.1,0.3,0.2,0.4,0.2c0.1,0,0.3,0,0.5-0.1c0.2-0.1,0.4-0.2,0.6-0.4c0.2-0.2,0.4-0.4,0.5-0.6
		c0.2-0.3,0.3-0.5,0.4-0.9h3.9l-0.6,2.6c-0.3,0.2-0.7,0.4-1.1,0.5c-0.4,0.1-0.9,0.3-1.3,0.3c-0.5,0.1-0.9,0.2-1.4,0.2
		c-0.5,0-0.9,0.1-1.4,0.1c-0.8,0-1.5-0.1-2.2-0.2c-0.7-0.1-1.3-0.4-1.8-0.7c-0.5-0.4-0.9-0.8-1.2-1.4c-0.3-0.6-0.4-1.3-0.4-2.2
		c0-0.8,0.1-1.6,0.4-2.3s0.7-1.4,1.2-2c0.6-0.6,1.4-1.1,2.4-1.4c1-0.4,2.2-0.5,3.7-0.5c1.6,0,2.8,0.2,3.6,0.7s1.2,1.3,1.2,2.3
		c0,0.4-0.1,0.9-0.2,1.4s-0.3,0.9-0.6,1.3H264.5z M267.7,341.7c0-0.5-0.1-0.8-0.2-1c-0.2-0.2-0.4-0.3-0.6-0.3
		c-0.3,0-0.5,0.1-0.7,0.3s-0.4,0.4-0.6,0.7c-0.2,0.3-0.3,0.6-0.5,1c-0.1,0.4-0.3,0.7-0.4,1.1h2.7c0-0.2,0.1-0.4,0.1-0.6
		c0-0.2,0.1-0.4,0.1-0.6C267.6,342.1,267.7,341.9,267.7,341.7z"/>
	<path class="st2" d="M274.3,339.1h3.9l0.4,1.8h0.2c0.4-0.6,0.8-1.1,1.4-1.5c0.6-0.4,1.3-0.6,2.3-0.6c0.1,0,0.2,0,0.3,0
		c0.1,0,0.3,0,0.5,0.1s0.3,0.1,0.5,0.2c0.2,0.1,0.4,0.2,0.5,0.3l-1.1,4.9h-2.6c0-1-0.1-1.7-0.3-2.1c-0.1-0.4-0.4-0.6-0.7-0.6
		c-0.2,0-0.3,0-0.5,0.1c-0.2,0.1-0.4,0.2-0.6,0.5l-1.5,7.2h-4.9L274.3,339.1z"/>
	<path class="st2" d="M291.3,342.1c0-0.1,0-0.2,0-0.2s0-0.2,0-0.3c0-0.3-0.1-0.6-0.2-0.8c-0.1-0.2-0.3-0.4-0.6-0.4
		c-0.3,0-0.5,0.1-0.8,0.3c-0.3,0.2-0.4,0.5-0.4,0.9c0,0.3,0.1,0.5,0.2,0.6s0.3,0.3,0.5,0.4c0.2,0.1,0.5,0.2,0.8,0.2
		c0.3,0.1,0.6,0.1,0.8,0.2c0.4,0.1,0.7,0.2,1.1,0.3c0.3,0.1,0.7,0.3,0.9,0.5c0.3,0.2,0.5,0.5,0.6,0.8c0.2,0.3,0.2,0.7,0.2,1.2
		c0,0.7-0.2,1.2-0.5,1.7c-0.3,0.5-0.7,0.8-1.3,1.1c-0.6,0.3-1.2,0.5-1.9,0.6c-0.7,0.1-1.5,0.2-2.4,0.2c-1.3,0-2.4-0.1-3.2-0.3
		c-0.8-0.2-1.4-0.4-1.8-0.6l0.5-2.4h3.2c0,0.1,0,0.2,0,0.2s0,0.1,0,0.2c0,0.4,0.1,0.7,0.3,0.9s0.5,0.3,0.9,0.3c0.5,0,0.8-0.1,1-0.4
		c0.2-0.3,0.3-0.5,0.3-0.7c0-0.2-0.1-0.4-0.3-0.6s-0.4-0.3-0.6-0.4c-0.3-0.1-0.5-0.2-0.9-0.3c-0.3-0.1-0.6-0.2-0.9-0.3
		c-0.2,0-0.4-0.1-0.7-0.2c-0.3-0.1-0.5-0.3-0.8-0.5c-0.2-0.2-0.4-0.5-0.6-0.8s-0.2-0.7-0.2-1.2c0-0.7,0.2-1.3,0.5-1.8
		c0.3-0.5,0.8-0.9,1.3-1.1c0.6-0.3,1.2-0.5,1.9-0.6c0.7-0.1,1.4-0.2,2.1-0.2c0.9,0,1.7,0.1,2.5,0.2c0.8,0.2,1.4,0.4,1.9,0.6
		l-0.6,2.4H291.3z"/>
</g>
<path class="st3" d="M303.4,140.1c-5.3-2.1-13.3-0.5-19.5-1.2c0,0,0,0,0,0c-0.5-0.1-0.9-0.1-1.4-0.2c-0.1,0-0.2-0.1-0.4-0.1
	c-0.3-0.1-0.7-0.1-1.1-0.2c0.9-1.6,2.5-4.4,2.2-5c-0.5-0.8-3.1-2.9-3.7-3.2c-0.7-0.2-13.7,0.1-14.5,0.6c-0.4,0.3-0.8,1.3-1.1,2.4
	c-0.2-0.2-0.4-0.3-0.4-0.3c-5.2-4.3-9.8-8-14.5-11.8c-11.6-9.5-19.3-15.5-39.8-15.5c-9.4,0-51.3-0.3-68.7-0.2
	c-14.4,0.1-26.3,6.1-36.8,15.3c-4.9,4.3-9.9,8.4-12.9,14.6c-1.2,2.5-4.7,3.9-7.2,5.7c-2.4,1.7-4.2,3.4-3.2,6.8
	c0.1,0.4,0.1,0.8,0,1.2c5.2,1.2,10,3.8,13.9,7.5c2.6-1.4,5.4-2.1,8.4-2.1c5,0,9.6,2.1,12.9,5.8c2-0.1,4.2-0.1,6.5-0.1
	c0.5-3.7,1.2-11.2-2.1-12.6c-6.5-2.8-24.5-2.4-24.5-2.4s10.7-1.9,24.8,0c7.9,1.1,7.7,5.3,7.6,6.3c-0.1,1.8-0.4,5.5-0.7,9.6
	c1.3,0.3,2.6,0.6,3.9,1.1c1.3-1.9,3.1-3.3,5.6-3.6c6.4-0.8,9.8,6.9,11.7,15.4c1.3-0.2,2.5-0.3,3.8-0.3c0.7,0,1.3,0,2,0.1
	c-0.3-0.3-0.5-0.6-0.6-1c-0.4-1.8,0.3-2.3,1-2.2c0.6,0.1,1.2,0.2,1.8,0.3h0c2.4-2.9,5.4-5.4,8.8-7.1c-0.5-0.3-0.9-0.5-1.4-0.8
	c-3.2-1.9-6.8-6-7.5-8.8c16.6,2.5,29.9,4.6,46.1,7c0,0,0.1,0,0.2,0c0.1,0,0.1,0,0.2,0c0.2,0,0.6,0.1,1,0.1c2,0.3,5.4,0.9,6,1.2
	c1.3,0.7,1.4,3.5,1.2,6.3c-0.2,2.9-1.5,4.5-1.7,4.7c0.1-0.2,0.7-1.5,0.9-4.6c0.1-1.9-0.2-3.3-0.8-4.5c-0.2-0.4-3.9-1-5.4-1.3
	c0.5,4.5-0.6,7.5-2.4,9.3c0.9,1.2,1.6,2.5,2.3,3.9c1.4,0.3,2.7,0.7,4,1.4c2.6-4.1,7.1-6.7,12.1-6.7c7,0,12.8,5,14,11.6
	c11-1.9,22.1-3.1,33.4-3.1c5.1,0,10.2,0.2,15.1,0.7c3.4,0.3,6.6,0.7,9.6,1.2c3.9-4,9.3-6.2,15-6.2c0.4,0,0.8,0,1.2,0
	c0.5,0,0.9-0.2,1-0.6c0.4-0.9,1.7-1.8,3.5-2.2c1.8-0.4,2.9-0.8,3-2.6C316,157.1,314.8,145.2,303.4,140.1z M133.9,134.8
	c-0.6-1.8-1.5-4-2.4-4.2c-1.5-0.3-9.6-0.2-10.5,0c-0.8,0.2-2.1,2.3-2.1,2.7c0,0.2,0.7,1.2,1.6,2.2c0,0,1.2,1.3,2,1.6s3,0.8,3,0.8
	s-3.6,0.1-4.6,0c-0.7-0.1-2.4-1.6-3.3-2.3c-9,0.3-18.4,0.6-19.2,0.4c-1.7-0.4-2.5-1.1-2.7-2.1c-0.1-0.6,0.4-1.9,0.9-2.5
	c6.4-7.2,14.7-14,20.5-16.8c2.9-1.4,6.7-2.3,10.1-2.4c1.7,0,4.7,0.9,5,3.6c0.7,5.9,1.4,11.8,1.9,18
	C134.4,134.3,134.2,134.6,133.9,134.8z M139.2,128.4c-0.4-4.6-0.3-9.2-0.5-13.8c-0.1-2.4,0.7-5.2,15.8-5.2c24.8,0,37.7,0.4,62.5,0.6
	c7.8,0.1,13.2,2.4,19.5,7c3.4,2.4,6.8,4.8,10,7.4c4.1,3.2,8.1,6.7,12.2,10c0.5,0.4,0.4,1-0.5,1c-1,0.1-46.5-0.1-75.1-0.3
	c-12.4-0.1-24.9-0.3-37.3-0.6C140.8,134.4,139.6,133.2,139.2,128.4z M282.8,160.7c-2.3,5.7-7,6.5-12.2,6.5
	c-18.4,0.1-25.1,0.1-43.5,0.1c-2.2,0-4.5,0-6.5-0.7c-2.1-0.8-3.9-2.5-5.9-3.8c-1.4-0.9-2.8-2.3-4.4-2.6c-13.9-2.2-23.8-3.6-35.8-5.5
	c0,0-0.1,0-0.2,0c-1.7-0.2-15.4-1.8-20.2-4c-3.9-1.8-7.5-6.1-7.6-9.8c0,0,0.8,3.3,6.1,6.6c3.3,2.1,16.9,3.8,16.9,3.8
	c12.8,1.4,22.4,2.4,36.8,4.1c2.6,0.3,5.2,0.9,7.7,1.4c3.2,0.8,6.3,2.4,9.5,2.4c21.4,0.1,31-0.2,52.5-0.4c1.5,0,3.1-0.7,4.5-1.3
	c1.5-0.6,3-1.6,4.5-2.1c5.3-1.6,17.7-4.1,19.5-7.9c0.8-1.7-1.9-5.1-4.3-6c0.6,0.2,5.6,1.8,6.5,5.4c1,3.8-2.6,5.9-9.7,8.5
	c-3.9,1.4-7.9,2.4-11.9,3.7C284.4,159.5,283.1,160,282.8,160.7z M305.7,161.8c-3.7,4.6-9.8,10.7-14.8,11.7c-4.6,0.9-3.3-5.3-3.3-9.8
	c-0.7,0.1-1.5,0.3-1.8,0.7c-0.6,0.7-1,6.3-1,6.3s-0.4-3.6,0.3-6.8c0.3-1.5,1.2-1.6,1.2-1.6c12.3-3,19.8-7.5,21.6-10
	C309.2,153.4,308.9,157.9,305.7,161.8z"/>
<g>
	<g>
		<path class="st2" d="M56.8,144.4c0,2.9-2.5,5.2-5.5,5.2s-5.5-2.3-5.5-5.2s2.5-5.2,5.5-5.2S56.8,141.5,56.8,144.4z"/>
		<ellipse class="st2" cx="325.8" cy="172" rx="4.1" ry="3.9"/>
		<path class="st2" d="M323.2,180.8c-3.3-5.3-9.3-8.8-16.2-8.8c-4.7,0-9,1.6-12.3,4.3c6.7,1.1,12.4,2.6,17.7,4.7
			c7.8,2.9,14.2,7.3,18.8,12.7c0.7-1.2,1.1-2.6,1.1-4.1C332.3,184.8,328.3,180.9,323.2,180.8z"/>
		<path class="st2" d="M219.9,168.1c-5.2,0-9.6,3.1-11.2,7.5c-1.7-1.5-3.9-2.5-6.4-2.7c-4-8.7-13.3-14.8-24-14.8
			c-9.8,0-18.3,5.1-22.8,12.6c-1.1-0.1-2.2-0.2-3.4-0.2c-2.5,0-4.9,0.4-7.2,1c-4.4-7.9-13.1-13.3-23.2-13.3c-2.2,0-4.3,0.3-6.4,0.7
			c-2.7-3.9-7.3-6.5-12.6-6.5c-3.3,0-6.3,1-8.7,2.6c-4.9-5.2-12.1-8.4-20-8.4c-10.3,0-19.2,5.4-23.7,13.4
			c-3.8-8.5-12.4-14.7-22.6-15.5c-3.3,10.4-2.7,21.1,1.8,29.9c10.3,19.2,33.7,28.9,69.8,28.9c3.9,0,8.1-0.1,12.3-0.3
			c9.9-0.6,19.9-2.1,29.7-3.9c-2.5-2.5-4-5.9-4-9.6c0-7.8,6.7-14.1,14.9-14.1c2.6,0,5.1,0.6,7.3,1.8c2.4-8.2,10.5-14.3,20-14.3
			c8.1,0,15,4.3,18.5,10.6c-4,1.4-6.8,5.1-6.8,9.3c0,1.3-0.5,7.8,0,9c2.7-0.7,7.2,0.1,10-0.6c1.5-0.4,2-7.5,3.5-7.9
			c9-2.2,18.1-4.3,27.2-5.9C230.7,172.1,225.8,168.1,219.9,168.1z M72.4,188.1c-11.1,0-20.2-8.5-20.2-19s9-19,20.2-19
			s20.1,8.5,20.1,19C92.6,179.6,83.6,188.1,72.4,188.1z"/>
		<path class="st2" d="M242.9,111c0,0.1,0,0.3,0,0.4c-6.1-4.2-12.1-7.2-20.5-8.6c1.4-2.2,2.2-4.8,2.2-7.6c0-8.1-7-14.7-15.6-14.7
			s-15.6,6.6-15.6,14.7c0,2.3,0.6,4.6,1.6,6.6c-2.2,0-4.6,0-7.1,0c-9.1,0-19.6-0.1-29-0.1c1.6-1.9,4.1-3.1,6.9-3.1c0,0,0,0,0,0
			c2-6.7,8.5-11.6,16.2-11.6c3.3,0,6.3,0.9,8.9,2.4c3.7-6.8,11.2-11.4,19.8-11.4c12.4,0,22.4,9.5,22.4,21.1c0,0.6,0,1.2-0.1,1.8
			C238.6,101.3,242.9,105.7,242.9,111z"/>
		<ellipse class="st2" cx="186.8" cy="80.2" rx="4.2" ry="4"/>
		<path class="st2" d="M189.5,172.8c0,3.1-2.6,5.5-5.9,5.5c-3.2,0-5.9-2.5-5.9-5.5s2.6-5.5,5.9-5.5S189.5,169.8,189.5,172.8z"/>
		<path class="st2" d="M155.8,93.3c0,1.2-1.1,2.2-2.4,2.2s-2.4-1-2.4-2.2s1.1-2.2,2.4-2.2C154.7,91.1,155.8,92.1,155.8,93.3z"/>
		<path class="st2" d="M251,110.5c0,1.2-1.1,2.3-2.4,2.3c-1.3,0-2.4-1-2.4-2.3c0-1.2,1.1-2.3,2.4-2.3
			C249.9,108.3,251,109.3,251,110.5z"/>
	</g>
</g>
<polygon class="st3" points="52.5,58.1 58.1,69.6 70.8,71.4 61.6,80.3 63.8,92.9 52.5,87 41.2,92.9 43.3,80.3 34.2,71.4 46.8,69.6 
	"/>
<polygon class="st3" points="319.7,58.1 325.3,69.6 337.9,71.4 328.8,80.3 331,92.9 319.7,87 308.4,92.9 310.5,80.3 301.4,71.4 
	314,69.6 "/>
<polygon class="st3" points="252.9,40.8 258.5,52.2 271.1,54 262,62.9 264.2,75.5 252.9,69.6 241.6,75.5 243.7,62.9 234.6,54 
	247.2,52.2 "/>
<polygon class="st3" points="119.3,40.8 124.9,52.2 137.6,54 128.4,62.9 130.6,75.5 119.3,69.6 108,75.5 110.1,62.9 101,54 
	113.6,52.2 "/>
<polygon class="st3" points="186.1,29.2 191.7,40.6 204.4,42.4 195.2,51.3 197.4,63.9 186.1,58 174.8,63.9 176.9,51.3 167.8,42.4 
	180.4,40.6 "/>
<polygon class="st3" points="186.5,474.8 134.2,434.2 82,393.7 186.5,393.7 291.1,393.7 238.8,434.2 "/>
<g class="st1">
	<path class="st3" d="M149.8,365.1h9.9v2.1h-6.6v1.6h6v1.8h-6v1.7h6.7v2.1h-10V365.1z"/>
	<path class="st3" d="M160.2,373.6l0.8-1.6c0.9,0.6,2.6,1,4.1,1c1.5,0,2.1-0.2,2.1-0.5c0-0.3-0.5-0.4-1.4-0.5l-1.7-0.1
		c-2.3-0.2-3.4-0.7-3.4-1.9c0-1.7,1.9-2.4,4.6-2.4c1.4,0,2.8,0.3,4,0.9l-0.7,1.4c-0.8-0.4-2.1-0.8-3.3-0.8c-1.1,0-1.9,0.2-1.9,0.5
		c0,0.3,0.4,0.4,1.2,0.4l1.7,0.1c2.5,0.2,3.7,0.8,3.7,2.1c0,1.7-2,2.4-4.6,2.4C163.5,374.7,161.4,374.2,160.2,373.6z"/>
	<path class="st3" d="M172.1,372l0-2.5h-1.9v-1.9h1.9v-1.8l3.1-0.5v2.4h4.1v1.9h-4.1v1.8c0,0.8,0.4,1.2,1.4,1.2c0.9,0,1.6-0.3,2.3-1
		l0.7,1.7c-1,0.9-2.2,1.3-3.9,1.3C173.4,374.7,172.1,373.7,172.1,372z"/>
	<path class="st3" d="M180,373.1c0-0.9,0.7-1.5,1.7-1.5c1,0,1.7,0.6,1.7,1.5c0,0.9-0.7,1.5-1.7,1.5C180.7,374.6,180,374,180,373.1z"
		/>
	<path class="st3" d="M187.1,373.2c0-2.5,1.2-3.6,4.2-4l1.5-0.2c1-0.1,1.4-0.4,1.4-0.9c0-0.6-0.7-0.9-1.6-0.9c-1.2,0-2.9,0.6-4,1.4
		l-1.1-2.1c1.3-1,3.6-1.6,5.6-1.6c2.6,0,4.5,1.1,4.5,3.2c0,1.7-1,2.4-3.4,2.8l-1.7,0.2c-1.3,0.2-1.8,0.5-1.8,1.3h7.1v2.1h-10.5
		V373.2z"/>
	<path class="st3" d="M198.4,369.8c0-2.9,2.5-4.9,6-4.9c3.5,0,6,2,6,4.9c0,2.9-2.5,4.9-6,4.9C200.9,374.7,198.4,372.7,198.4,369.8z
		 M207.1,369.8c0-1.5-1.1-2.5-2.6-2.5s-2.6,1-2.6,2.5c0,1.5,1.1,2.5,2.6,2.5S207.1,371.3,207.1,369.8z"/>
	<path class="st3" d="M211.3,373.2c0-2.5,1.2-3.6,4.2-4l1.5-0.2c1-0.1,1.4-0.4,1.4-0.9c0-0.6-0.7-0.9-1.6-0.9c-1.2,0-2.9,0.6-4,1.4
		l-1.1-2.1c1.3-1,3.6-1.6,5.6-1.6c2.6,0,4.5,1.1,4.5,3.2c0,1.7-1,2.4-3.4,2.8l-1.7,0.2c-1.3,0.2-1.8,0.5-1.8,1.3h7.1v2.1h-10.5
		V373.2z"/>
	<path class="st3" d="M222.4,371.5l3.3-0.7c0.1,1,1.1,1.7,2.4,1.7c1.1,0,1.8-0.5,1.8-1.2c0-0.7-0.7-1.1-1.6-1.1l-1.3,0v-1.3l1.1,0
		c0.9,0,1.5-0.4,1.5-1c0-0.6-0.6-1-1.6-1c-1.1,0-1.9,0.6-2,1.4l-3.3-0.5c0.3-1.8,2.6-2.9,5.4-2.9c2.7,0,4.7,1.1,4.7,2.7
		c0,0.8-0.5,1.6-1.5,2v0c1.2,0.4,1.9,1.2,1.9,2.2c0,1.8-2.2,2.9-5.1,2.9C225,374.7,222.8,373.4,222.4,371.5z"/>
</g>
<g>
	<g>
		<path class="st2" d="M220.1,5.2C198,0,175.1,0,152.9,5.2L0,41v115v107.4c0,50.6,20.4,99.1,56.7,134.5l129.9,100.9l130.1-101.1
			c36.1-35.2,56.4-83.5,56.4-133.9V155.9V41L220.1,5.2z M307.6,387.3l-121.1,94.1L65.7,387.5C43.6,366,27.8,339.2,19.6,310h334
			C345.4,339.1,329.7,365.8,307.6,387.3z M109.6,275.1c8.6,0,14-5.2,14-19.2v-49.5h19.1H154h19.1v33.2l30.1-33.2h33.6l-36.6,40.3
			l23,30.6l31-70.9h30.4l40,91.6h-31.9l-6.1-16h-34.8l-6.1,16h-6.9h-24.5h-11.2L180,267.7l-6.9,7.7V298h-30.4v-9.8
			c-7.6,7.7-19,11.9-33.4,11.9c-28.1,0-44.6-15.8-44.6-43.3v-50.4h30.9v49.5C95.6,269.9,101,275.1,109.6,275.1z M360.1,162.5V190H13
			v-27.5v-107l142.3-33.3c20.6-4.8,42-4.8,62.5,0l142.3,33.3V162.5z"/>
		<polygon class="st2" points="269.1,236.8 260.2,259.8 278,259.8 		"/>
	</g>
</g>
</svg>
